Coordinates
version=1
nRows=16
nColumns=36
inDegrees=yes

Units are S.I. units (second, meters, Newtons, ...)
If the header above contains a line with 'inDegrees', this indicates whether rotational values are in degrees (yes) or radians (no).

endheader
time	pelvis_tilt	pelvis_list	pelvis_rotation	pelvis_tx	pelvis_ty	pelvis_tz	hip_flexion_r	hip_adduction_r	hip_rotation_r	knee_angle_r	knee_angle_r_beta	ankle_angle_r	subtalar_angle_r	mtp_angle_r	hip_flexion_l	hip_adduction_l	hip_rotation_l	knee_angle_l	knee_angle_l_beta	ankle_angle_l	subtalar_angle_l	mtp_angle_l	lumbar_extension	lumbar_bending	lumbar_rotation	arm_flex_r	arm_add_r	arm_rot_r	elbow_flex_r	pro_sup_r	arm_flex_l	arm_add_l	arm_rot_l	elbow_flex_l	pro_sup_l
      2.46666670	     -4.82189293	     -3.00530771	      9.20549809	      0.60578826	      0.93749825	     -0.14088120	     30.00938874	     -1.49603831	      1.11988707	     49.64492318	      0.86646737	    -25.69064955	    -30.92207075	     -7.49999987	      6.22102800	      4.94474546	      2.80720589	      3.02354858	      0.05277088	      3.94677951	     -3.97034604	     -7.49999987	      0.42757677	     -3.04680613	     -2.78417412	     44.22428284	     12.14641434	     66.55239103	    130.09332646	     90.16137871	     38.53307754	      6.57020915	     66.66089325	    123.14498763	     67.06311788
      2.48333330	     -4.79490187	     -2.94678837	      8.88188950	      0.60035877	      0.93716270	     -0.14441627	     30.54179694	     -1.65127926	      1.42874020	     50.41784420	      0.87995738	    -25.94742603	    -30.75081472	     -7.49999987	      6.78718211	      5.14148208	      2.44815586	      3.74814549	      0.06541748	      3.65970472	     -4.71234878	     -7.49999987	     -0.11240342	     -2.96896263	     -2.81180899	     45.21131841	     12.09388753	     66.78869773	    130.35764209	     90.49084372	     39.02136102	      6.80517090	     66.33366400	    122.86968013	     67.19223182
      2.50000000	     -4.83753370	     -2.86603991	      8.61807538	      0.59584892	      0.93612191	     -0.14778478	     31.30365499	     -1.75818524	      2.08539272	     51.28153303	      0.89503160	    -26.27097903	    -30.56482088	     -7.49999987	      7.43147639	      5.42756812	      2.31934505	      4.42906115	      0.07730170	      3.24216535	     -5.78141948	     -7.49999987	     -0.54944256	     -2.85644657	     -2.74271280	     46.27811001	     11.89118126	     67.54659029	    130.66286130	     88.47106475	     39.66143093	      7.07158107	     66.04961628	    122.21572520	     66.96530613
      2.51666670	     -4.94548594	     -2.88983252	      8.44477574	      0.59608950	      0.93632928	     -0.14755074	     32.20085347	     -1.82979031	      2.44049498	     52.63803548	      0.91870703	    -25.93818700	    -29.81148490	     -7.49999987	      8.15682921	      5.55799722	      2.14888742	      5.41153605	      0.09444912	      3.06364253	     -6.56725852	     -7.49999987	     -0.75557435	     -2.71498591	     -2.66772624	     46.82033459	     11.78977917	     67.50372804	    130.90822676	     94.89903904	     40.02926311	      7.48267665	     65.91671866	    121.57380655	     69.73184867
      2.53333330	     -4.64996559	     -2.94622893	      8.34450642	      0.59671486	      0.93979554	     -0.14786343	     32.56632727	     -1.83627331	      2.60556180	     54.12463236	      0.94465304	    -26.21890542	    -29.35547410	     -7.49999987	      8.33949003	      5.55774018	      2.01198398	      6.22306816	      0.10861303	      3.14663280	     -6.68001377	     -7.49999987	     -1.37983132	     -2.44410578	     -2.69139161	     47.12195252	     11.81288407	     67.86538893	    130.89583496	     94.83377448	     40.07468585	      7.74625602	     65.93174118	    121.32972967	     69.72099096
      2.55000000	     -4.50901038	     -3.11890047	      8.67831537	      0.59673521	      0.93946724	     -0.14804219	     32.95316951	     -1.67888939	      2.86604449	     55.42217085	      0.96729936	    -25.85777545	    -28.25793262	     -7.49999987	      8.74386153	      5.41947907	      1.92276898	      7.24520775	      0.12645273	      3.61015003	     -6.78501093	     -7.49999987	     -1.70634624	     -2.22614919	     -2.76848273	     47.23915138	     11.64806266	     68.36380576	    131.15778506	     93.81514561	     40.15112853	      7.96866979	     66.49217385	    121.38514137	     69.42626419
      2.56666670	     -4.11551246	     -3.25524732	      8.73098154	      0.59167303	      0.93578378	     -0.15136245	     33.52727584	     -1.59993970	      3.45072621	     57.45606032	      1.00279743	    -26.04705231	    -27.53459492	     -7.49999987	      9.50467521	      5.32676177	      1.66735747	      9.15565131	      0.15979626	      4.45341748	     -7.35346015	     -7.49999987	     -2.48970304	     -1.82089025	     -2.77871382	     47.84833172	     11.60398862	     68.24930228	    131.12346341	     93.90356719	     40.49384162	      8.47367133	     66.77406677	    121.55500692	     69.48484080
      2.58333330	     -4.04167152	     -3.30164302	      8.74031402	      0.59157958	      0.93609800	     -0.15133617	     34.29590338	     -1.53863524	      3.99911158	     59.25750063	      1.03423849	    -24.21834208	    -25.21166006	     -7.49999987	     10.58530225	      5.27517550	      1.14076649	     11.13754431	      0.19438682	      5.22299040	     -7.58025316	     -7.49999987	     -2.75496069	     -1.69349646	     -2.50951164	     48.28908659	     11.35323145	     68.05837069	    131.17798794	     92.72332173	     40.70960390	      8.87369713	     67.49696467	    122.02825889	     69.22757096
      2.60000000	     -4.01768307	     -3.26440099	      8.56230154	      0.59189810	      0.93637728	     -0.15119956	     34.92058030	     -1.42496362	      4.34900125	     61.19301682	      1.06801962	    -21.93853332	    -24.18542141	     -7.49999987	     11.37046295	      5.26129065	      0.96480650	     12.38308286	      0.21612557	      5.18993682	     -7.56202615	     -7.49999987	     -3.05382264	     -1.65464728	     -2.13736385	     48.55736033	     11.24719311	     68.02161929	    131.27637113	     91.22392635	     40.76729406	      9.16957415	     68.11094155	    122.72502474	     68.79736316
      2.61666670	     -3.77254832	     -3.31350364	      8.50701255	      0.59170202	      0.93698769	     -0.15132105	     35.55444312	     -1.30416280	      4.46192017	     63.38178701	      1.10622087	    -19.44942305	    -23.04829100	     -7.49999987	     11.60036912	      5.16264339	      0.98510620	     13.20996283	      0.23055735	      5.43445344	     -7.38276309	     -7.49999987	     -3.50863990	     -1.58489309	     -1.92249064	     48.77445446	     11.10220277	     67.89817321	    131.43637573	     90.74243828	     40.96959555	      9.47367384	     68.72231717	    123.13097549	     68.72619556
      2.63333330	     -3.40558199	     -3.41120590	      8.45755305	      0.59234890	      0.94033221	     -0.15182105	     35.91663326	     -0.99098595	      4.31398317	     65.67284337	      1.14620735	    -17.16996487	    -22.31031995	     -7.49999987	     11.41101574	      4.97672381	      1.19685212	     13.50766502	      0.23575323	      5.70225346	     -7.01773492	     -7.49999987	     -3.89275763	     -1.53269492	     -1.74344714	     48.79401014	     10.90409314	     67.66107898	    131.59357324	     91.26834940	     40.94840463	      9.78035272	     69.43190226	    123.67165403	     69.05196425
      2.65000000	     -2.99849429	     -3.77894126	      8.65382379	      0.59212975	      0.94020377	     -0.15239535	     36.49773742	     -0.57506565	      4.06482350	     68.09833448	      1.18854015	    -14.82919393	    -21.59780978	     -7.49999987	     10.67341198	      4.62060053	      1.42955141	     13.25637023	      0.23136731	      7.65299687	     -6.03278093	     -7.49999987	     -4.21707369	     -1.17945074	     -1.83988673	     48.90011726	     10.83311292	     67.78152288	    131.66138011	     91.84025092	     40.82439619	      9.90694770	     69.74590960	    123.96133800	     69.52098900
      2.66666670	     -2.65682617	     -4.05108712	      8.85749163	      0.59211831	      0.93949004	     -0.15287556	     36.83263230	     -0.25537813	      3.49461781	     70.27689338	      1.22656318	    -12.43804471	    -22.52936148	     -7.49999987	      9.74901362	      4.38562493	      1.85456196	     12.64072934	      0.22062235	      8.89718662	     -5.75796892	     -7.49999987	     -4.44660038	     -0.91828690	     -2.03891295	     49.02489036	     10.65164961	     67.59698751	    131.73034975	     91.78486137	     40.89811197	      9.87840359	     69.95695393	    124.22743599	     69.50211967
      2.68333330	     -2.48694136	     -4.27712152	      9.18205342	      0.59165676	      0.93928330	     -0.15326356	     36.98898574	     -0.06643725	      2.82395732	     71.59500437	      1.24956855	     -9.98284882	    -23.57853124	     -7.49999987	      9.13515653	      4.18218968	      2.11285665	     12.08969676	      0.21100501	      9.68088523	     -5.54852330	     -7.49999987	     -4.46180523	     -0.77378424	     -2.01070280	     48.93492374	     10.70867713	     67.79647780	    131.72795979	     91.62133952	     41.04795703	     10.04926414	     70.14801791	    124.44475629	     69.45764860
      2.70000000	     -2.37649081	     -4.45678457	      9.48711925	      0.58686599	      0.93771708	     -0.15697504	     37.41168376	     -0.05744616	      2.29206605	     72.78075137	      1.27026374	     -7.15281680	    -25.00983607	     -7.49999987	      8.79577787	      4.17105474	      2.47683159	     11.84969834	      0.20681625	     10.54760982	     -5.67646274	     -7.49999987	     -4.55676591	     -0.51773600	     -2.11389835	     49.08562405	     10.56557031	     67.54248218	    131.78081901	     92.02284831	     41.41144368	     10.33914537	     70.06107248	    124.77092758	     69.66481785
      2.71666670	     -2.44193992	     -4.58489526	      9.61602177	      0.58677125	      0.93770147	     -0.15699976	     37.64767127	     -0.07618811	      1.60244971	     73.32030959	      1.27968081	     -5.45598031	    -26.46077985	     -7.49999987	      8.66762378	      4.15449269	      2.56943542	     11.46004384	      0.20001550	     10.60193281	     -5.86013036	     -7.49999987	     -4.57179162	     -0.40735233	     -2.04099050	     49.42439177	     10.56559615	     67.70880627	    131.92058017	     91.73000924	     41.77844825	     10.79709781	     70.29892929	    125.27161521	     69.70382814
